<svg version="1.2" xmlns="http://www.w3.org/2000/svg" viewBox="0 0 882 144" width="882" height="144"><style>.a{fill:#3daa45}</style><path fill-rule="evenodd" class="a" d="m21 54l24-25h72v73.2l-24 23.5v-71.7z"/><path fill-rule="evenodd" class="a" d="m21 77h31l-31 31z"/><path fill-rule="evenodd" class="a" d="m38 124.9l31-30.9v30.8z"/><path  d="m172.6 84.6h-18.1v-10h17.5q3.6 0 6.3-1.4 2.8-1.5 4.4-4.1 1.6-2.7 1.6-6.3 0-3.6-1.6-6.2-1.6-2.7-4.4-4.1-2.7-1.5-6.3-1.5h-17.5v-10h18.1q6.6 0 11.8 2.7 5.3 2.7 8.3 7.6 3.1 4.9 3.1 11.5 0 6.6-3.1 11.5-3 4.9-8.3 7.6-5.2 2.7-11.8 2.7zm-14.5 26.4h-11.5v-70h11.5zm58.4 0h-11v-48h11zm0-26.7l-3.8-1.9q0-9.1 4-14.7 4.1-5.7 12.3-5.7 3.6 0 6.5 1.3 2.9 1.3 5.4 4.2l-7.2 7.4q-1.3-1.4-2.9-2-1.6-0.6-3.7-0.6-4.6 0-7.6 2.9-3 2.9-3 9.1zm50.3 27.7q-7 0-12.7-3.3-5.7-3.4-9.1-9.1-3.3-5.7-3.3-12.7 0-7 3.3-12.6 3.4-5.6 9.1-8.9 5.7-3.4 12.7-3.4 7.1 0 12.8 3.3 5.7 3.3 9 9 3.4 5.6 3.4 12.6 0 7-3.4 12.7-3.3 5.7-9 9.1-5.7 3.3-12.8 3.3zm0-10.6q4.1 0 7.2-1.8 3.2-1.9 4.9-5.2 1.8-3.3 1.8-7.5 0-4.2-1.8-7.4-1.8-3.2-4.9-5-3.1-1.9-7.2-1.9-4 0-7.2 1.9-3.1 1.8-4.9 5-1.7 3.2-1.7 7.4 0 4.2 1.7 7.5 1.8 3.3 4.9 5.2 3.2 1.8 7.2 1.8zm54.4 10.6q-6.5 0-11.8-3.3-5.2-3.3-8.3-8.9-3-5.7-3-12.7 0-7.1 3-12.7 3.1-5.7 8.3-9 5.3-3.4 11.8-3.4 5.5 0 9.7 2.4 4.3 2.3 6.8 6.4 2.5 4.1 2.5 9.3v13.8q0 5.2-2.5 9.3-2.4 4.1-6.7 6.5-4.3 2.3-9.8 2.3zm1.8-10.4q4.1 0 7.1-1.8 3.1-1.9 4.8-5.2 1.7-3.3 1.7-7.6 0-4.3-1.7-7.6-1.7-3.3-4.8-5.1-3-1.9-7-1.9-4.1 0-7.2 1.9-3 1.8-4.8 5.1-1.7 3.3-1.7 7.6 0 4.3 1.7 7.6 1.8 3.3 4.8 5.2 3.1 1.8 7.1 1.8zm23.9-62.6v72h-11v-12.9l1.9-11.7-1.9-11.6v-35.8zm31.9 73q-6.1 0-10.9-2.7-4.7-2.7-7.4-7.4-2.6-4.8-2.6-11v-27.9h11v27.4q0 3.5 1.1 6 1.2 2.4 3.4 3.7 2.3 1.3 5.4 1.3 4.8 0 7.3-2.8 2.6-2.9 2.6-8.2v-27.4h11v27.9q0 6.3-2.7 11.1-2.6 4.7-7.3 7.4-4.7 2.6-10.9 2.6zm54.1 0q-7.1 0-12.9-3.3-5.7-3.3-9-9-3.3-5.7-3.3-12.7 0-7.1 3.3-12.7 3.3-5.7 9-9 5.8-3.3 12.9-3.3 5.6 0 10.4 2.2 4.9 2.1 8.3 6.1l-7.2 7.3q-2.1-2.5-5.1-3.7-2.9-1.3-6.4-1.3-4.1 0-7.3 1.9-3.1 1.8-4.9 5-1.7 3.2-1.7 7.5 0 4.2 1.7 7.5 1.8 3.2 4.9 5.1 3.2 1.8 7.3 1.8 3.5 0 6.4-1.2 3-1.3 5.1-3.8l7.2 7.3q-3.4 4-8.3 6.2-4.8 2.1-10.4 2.1zm44.1-1h-11v-68h11zm11.5-38h-34v-10h34zm41 38h-11.5v-70h11.5zm33 0h-36.6v-10.5h36.6zm27.5 1q-6.5 0-11.8-3.3-5.2-3.3-8.3-8.9-3-5.7-3-12.7 0-7.1 3-12.7 3.1-5.7 8.3-9 5.3-3.4 11.8-3.4 5.5 0 9.7 2.4 4.3 2.3 6.8 6.4 2.5 4.1 2.5 9.3v13.8q0 5.2-2.5 9.3-2.4 4.1-6.7 6.5-4.3 2.3-9.8 2.3zm1.8-10.4q6.1 0 9.8-4.1 3.8-4.1 3.8-10.5 0-4.3-1.7-7.6-1.7-3.3-4.8-5.1-3-1.9-7.1-1.9-4 0-7.1 1.9-3 1.8-4.8 5.1-1.7 3.3-1.7 7.6 0 4.3 1.7 7.6 1.8 3.3 4.8 5.2 3.1 1.8 7.1 1.8zm23.9 9.4h-11v-12.9l1.9-11.7-1.9-11.6v-11.8h11zm31.9 1q-6.1 0-10.9-2.7-4.7-2.7-7.4-7.4-2.6-4.8-2.6-11v-27.9h11v27.4q0 3.5 1.1 6 1.2 2.4 3.4 3.7 2.3 1.3 5.4 1.3 4.8 0 7.3-2.8 2.6-2.9 2.6-8.2v-27.4h11v27.9q0 6.3-2.7 11.1-2.6 4.7-7.3 7.4-4.7 2.6-10.9 2.6zm75.9-1h-11v-27.7q0-4.8-3.1-7.9-3-3.1-7.8-3.1-3.2 0-5.7 1.4-2.5 1.4-3.9 3.9-1.4 2.5-1.4 5.7l-4.3-2.4q0-5.5 2.4-9.7 2.4-4.3 6.6-6.7 4.3-2.5 9.6-2.5 5.4 0 9.6 2.8 4.2 2.7 6.6 7.1 2.4 4.3 2.4 9zm-32.9 0h-11v-48h11zm66.2 1q-7.1 0-12.9-3.3-5.7-3.3-9-9-3.3-5.7-3.3-12.7 0-7.1 3.3-12.7 3.3-5.7 9-9 5.8-3.3 12.9-3.3 5.6 0 10.4 2.2 4.9 2.1 8.3 6.1l-7.2 7.3q-2.1-2.5-5.1-3.7-2.9-1.3-6.4-1.3-4.1 0-7.3 1.9-3.1 1.8-4.9 5-1.7 3.2-1.7 7.5 0 4.2 1.7 7.5 1.8 3.2 4.9 5.1 3.2 1.8 7.3 1.8 3.5 0 6.4-1.2 3-1.3 5.1-3.8l7.2 7.3q-3.4 4-8.3 6.2-4.8 2.1-10.4 2.1zm70.5-1h-11v-27.7q0-4.8-3.1-7.9-3-3.1-7.8-3.1-3.2 0-5.7 1.4-2.5 1.4-3.9 3.9-1.4 2.5-1.4 5.7l-4.3-2.4q0-5.5 2.4-9.7 2.4-4.3 6.6-6.7 4.3-2.5 9.6-2.5 5.4 0 9.6 2.4 4.2 2.4 6.6 6.7 2.4 4.2 2.4 9.8zm-32.9 0h-11v-72h11z"/></svg>